{"title":"To Catch a Thief(1955)MP-4[DaScubaDude]","uid":12358870,"size":1068349076,"categoryP":"video","categoryS":"movies","magnet":"?xt=urn:btih:83384580f850076d375abbd648c37791310096d7&amp;dn=To+Catch+a+Thief%281955%29MP-4%5BDaScubaDude%5D&amp;tr=udp%3A%2F%2Ftracker.openbittorrent.com%3A80&amp;tr=udp%3A%2F%2Fopen.demonii.com%3A1337&amp;tr=udp%3A%2F%2Ftracker.coppersurfer.tk%3A6969&amp;tr=udp%3A%2F%2Fexodus.desync.com%3A6969","seeders":0,"leechers":0,"uploader":"dascuba","files":1,"time":1441506357,"description":"To Catch a Thief (1955)\nPG  |  106 min  |  Mystery, Romance, Thriller  |  September 1955 (USA)\n7.5 Your rating:   -/10   Ratings: 7.5/10 from 42,000 users   \nReviews: 169 user | 148 critic\nWhen a reformed jewel thief is suspected of returning to his former occupation, he must ferret out the real thief in order to prove his innocence.\n\nDirector: Alfred Hitchcock\nWriters: John Michael Hayes (screenplay), David Dodge (based on the novel by), 1 more credit Â»\nStars: Cary Grant, Grace Kelly, Jessie Royce Landis\n\nGeneral\nComplete name                    : C:To Catch a ThiefTO_CATCH_A_THIEF_Title1.mp4\nFormat                                   : MPEG-4\nFormat profile                           : Base Media\nCodec ID                                 : isom\nFile size                                : 1 019 MiB\nDuration                                 : 1h 46mn\nOverall bit rate mode                    : Variable\nOverall bit rate                         : 1 339 Kbps\nMovie name                               : TO_CATCH_A_THIEF_Title1\nWriting application                      : Lavf54.6.100\n\nVideo\nID                                       : 1\nFormat                                   : AVC\nFormat/Info                              : Advanced Video Codec\nFormat profile                           : Baseline@L3\nFormat settings, CABAC                   : No\nFormat settings, ReFrames                : 6 frames\nFormat settings, GOP                     : M=1, N=60\nCodec ID                                 : avc1\nCodec ID/Info                            : Advanced Video Coding\nDuration                                 : 1h 46mn\nBit rate                                 : 1 196 Kbps\nWidth                                    : 720 pixels\nHeight                                   : 404 pixels\nDisplay aspect ratio                     : 16:9\nFrame rate mode                          : Constant\nFrame rate                               : 29.970 fps\nColor space                              : YUV\nChroma subsampling                       : 4:2:0\nBit depth                                : 8 bits\nScan type                                : Progressive\nBits/(Pixel*Frame)                       : 0.137\nStream size                              : 910 MiB (89%)\n\nAudio\nID                                       : 2\nFormat                                   : AAC\nFormat/Info                              : Advanced Audio Codec\nFormat profile                           : LC\nCodec ID                                 : 40\nDuration                                 : 1h 46mn\nBit rate mode                            : Variable\nBit rate                                 : 137 Kbps\nMaximum bit rate                         : 148 Kbps\nChannel(s)                               : 2 channels\nChannel positions                        : Front: L R\nSampling rate                            : 44.1 KHz\nCompression mode                         : Lossy\nStream size                              : 104 MiB (10%)","torrent":{"xt":"urn:btih:83384580f850076d375abbd648c37791310096d7","amp;dn":"To+Catch+a+Thief%281955%29MP-4%5BDaScubaDude%5D","amp;tr":["udp%3A%2F%2Ftracker.openbittorrent.com%3A80","udp%3A%2F%2Fopen.demonii.com%3A1337","udp%3A%2F%2Ftracker.coppersurfer.tk%3A6969","udp%3A%2F%2Fexodus.desync.com%3A6969"],"infoHash":"83384580f850076d375abbd648c37791310096d7","infoHashBuffer":{"type":"Buffer","data":[131,56,69,128,248,80,7,109,55,90,187,214,72,195,119,145,49,0,150,215]},"announce":[],"urlList":[]}}